M48
; DRILL file {KiCad 7.0.7} date Thu Oct  3 14:14:58 2024
; FORMAT={-:-/ absolute / inch / decimal}
; #@! TF.CreationDate,2024-10-03T14:14:58+02:00
; #@! TF.GenerationSoftware,Kicad,Pcbnew,7.0.7
; #@! TF.FileFunction,Plated,1,2,PTH
FMAT,2
INCH
; #@! TA.AperFunction,Plated,PTH,ViaDrill
T1C0.0150
; #@! TA.AperFunction,Plated,PTH,ComponentDrill
T2C0.0295
; #@! TA.AperFunction,Plated,PTH,ComponentDrill
T3C0.0315
; #@! TA.AperFunction,Plated,PTH,ComponentDrill
T4C0.0394
; #@! TA.AperFunction,Plated,PTH,ComponentDrill
T5C0.0402
; #@! TA.AperFunction,Plated,PTH,ComponentDrill
T6C0.0512
; #@! TA.AperFunction,Plated,PTH,ComponentDrill
T7C0.0551
; #@! TA.AperFunction,Plated,PTH,ComponentDrill
T8C0.0900
%
G90
G05
T1
X2.25Y-2.45
X2.335Y-1.58
X2.4Y-4.0
X2.47Y-1.635
X2.495Y-4.0
X2.54Y-2.45
X2.545Y-2.055
X2.555Y-2.65
X2.555Y-2.75
X2.555Y-2.85
X2.58Y-2.09
X2.605Y-1.58
X2.615Y-2.125
X2.615Y-2.45
X2.65Y-2.195
X2.685Y-2.245
X2.705Y-2.45
X2.72Y-2.055
X2.74Y-1.635
X2.745Y-2.09
X2.77Y-2.125
X2.8Y-1.9
X2.8Y-2.45
X2.81Y-2.16
X2.85Y-2.195
X2.9Y-1.9
X2.9Y-2.45
X2.92Y-3.45
X2.92Y-3.7
X2.92Y-3.9
X3.0Y-1.9
X3.0Y-2.45
X3.0Y-2.65
X3.0Y-2.75
X3.0Y-2.85
X3.0Y-3.6
X3.0Y-4.4
X3.0Y-4.55
X3.0Y-4.75
X3.085Y-1.635
X3.085Y-3.5
X3.1Y-1.9
X3.1Y-2.45
X3.2Y-2.45
X3.2Y-3.65
X3.25Y-3.6
X3.25Y-4.4
X3.25Y-4.55
X3.3Y-2.45
X3.3Y-2.65
X3.3Y-2.75
X3.3Y-2.85
X3.35Y-4.2
X3.4Y-2.45
X3.56Y-1.6
X3.85Y-4.7
X4.1Y-4.05
X4.22Y-3.55
X4.265Y-3.6
X4.27Y-4.2
X4.31Y-3.65
X4.32Y-4.445
X4.325Y-4.0
X4.405Y-4.445
X4.405Y-4.65
X4.6Y-3.5
X4.65Y-3.45
X4.8Y-3.8
X4.8Y-3.9
X4.8Y-4.0
X4.8Y-4.7
X4.8Y-4.8
T2
X3.7495Y-4.7705
X3.7995Y-4.7205
X3.8495Y-4.7705
X4.275Y-4.1295
X4.325Y-4.1795
X4.375Y-4.1295
T3
X3.47Y-4.1
X3.47Y-4.4
X3.47Y-4.5
X3.47Y-4.8
X3.575Y-4.1
X3.575Y-4.4
X3.575Y-4.5
X3.575Y-4.8
X3.775Y-4.05
X3.8246Y-4.1494
X3.8246Y-4.2494
X3.8246Y-4.3494
X3.9954Y-4.5506
X3.9954Y-4.6506
X3.9954Y-4.7506
X4.075Y-4.65
X4.1246Y-4.1494
X4.1246Y-4.2494
X4.1246Y-4.3494
X4.175Y-4.05
X4.2954Y-4.5506
X4.2954Y-4.6506
X4.2954Y-4.7506
X4.475Y-4.65
T4
X1.8204Y-3.995
X1.9742Y-4.6362
X2.0742Y-4.6362
X2.1196Y-3.995
X2.1742Y-4.6362
X2.5042Y-4.6362
X2.6042Y-4.6362
X2.7042Y-4.6362
X3.4088Y-3.806
X3.5088Y-3.806
X3.8088Y-3.806
X3.9088Y-3.806
X4.0088Y-3.806
T5
X3.69Y-1.05
X3.69Y-1.15
X3.69Y-1.25
X3.69Y-1.35
X3.69Y-1.45
X3.69Y-1.55
X3.69Y-1.65
X3.69Y-1.75
X3.69Y-1.85
X3.69Y-1.95
X3.69Y-2.05
X3.69Y-2.15
X3.69Y-2.25
X3.69Y-2.35
X3.69Y-2.45
X3.69Y-2.55
X3.69Y-2.65
X3.69Y-2.75
X3.69Y-2.85
X3.69Y-2.95
X3.94Y-2.9409
X4.04Y-2.9409
X4.14Y-2.9409
X4.39Y-1.05
X4.39Y-1.15
X4.39Y-1.25
X4.39Y-1.35
X4.39Y-1.45
X4.39Y-1.55
X4.39Y-1.65
X4.39Y-1.75
X4.39Y-1.85
X4.39Y-1.95
X4.39Y-2.05
X4.39Y-2.15
X4.39Y-2.25
X4.39Y-2.35
X4.39Y-2.45
X4.39Y-2.55
X4.39Y-2.65
X4.39Y-2.75
X4.39Y-2.85
X4.39Y-2.95
T6
X4.802Y-4.1502
X4.802Y-4.3502
X4.802Y-4.5502
T7
X1.245Y-4.4463
X1.445Y-4.4463
X1.4987Y-3.985
X1.4987Y-4.185
T8
X1.3028Y-1.226
X1.3028Y-1.4032
X1.3028Y-2.8914
X4.787Y-1.226
X4.787Y-1.4032
X4.787Y-2.8914
T0
M30
